# xmcd
#
# Track frame offsets:
#	150
#	22115
#	53366
#	86919
#	106729
#	134351
#	150638
#	171358
#	192776
#	212977
#	234538
#	259532
#	295461
#
# Disc length: 4193 seconds
#
# Revision: 1
# Processed by: cddbd v1.4PL0 Copyright (c) Steve Scherf et al.
# Submitted via: audiograbber 1.82.00
#
DISCID=b5105f0d
DTITLE=Paul Samson - Live - The Blues Nights
DYEAR=2001
DGENRE=Blues
TTITLE0=Reconsider Baby (Live)
TTITLE1=Sweet Home Chicago (Live)
TTITLE2=Not Guilty (Live)
TTITLE3=Crossroads (Live)
TTITLE4=Love That Burns (Live)
TTITLE5=Black Magic Woman (Live)
TTITLE6=Albatross (Live)
TTITLE7=Hot Girls (Live)
TTITLE8=The City Burns (Live)
TTITLE9=A Fool For Your Stockings (Live)
TTITLE10=Voodoo Child (Slight Return) (Live)
TTITLE11=Louise (Live)
TTITLE12=Cherokee Mist (Live)
EXTD=
EXTT0=
EXTT1=
EXTT2=
EXTT3=
EXTT4=
EXTT5=
EXTT6=
EXTT7=
EXTT8=
EXTT9=
EXTT10=
EXTT11=
EXTT12=
PLAYORDER=
